<?xml version="1.0" encoding="UTF-8"?>
<svg width="79px" height="72px" viewBox="0 0 79 72" version="1.1" xmlns="http://www.w3.org/2000/svg" xmlns:xlink="http://www.w3.org/1999/xlink">
    <title>Group</title>
    <defs>
        <polygon id="path-1" points="0 0 79 0 79 72 0 72"></polygon>
    </defs>
    <g id="Symbols" stroke="none" stroke-width="1" fill="none" fill-rule="evenodd">
        <g id="Desktop-Logo" transform="translate(0.000000, -2.000000)">
            <g id="Group" transform="translate(0.000000, 2.000000)">
                <g id="Group-39">
                    <mask id="mask-2" fill="white">
                        <use xlink:href="#path-1"></use>
                    </mask>
                    <g id="Clip-38"></g>
                    <path d="M58.7936136,33.0572315 C51.6531018,33.0572315 45.8442546,27.2653122 45.8442546,20.1461033 C45.8442546,13.0272962 51.6531018,7.23537697 58.7936136,7.23537697 C65.9341254,7.23537697 71.7429726,13.0272962 71.7429726,20.1461033 C71.7429726,27.2653122 65.9341254,33.0572315 58.7936136,33.0572315 L58.7936136,33.0572315 Z M20.2063864,33.0572315 C13.0658746,33.0572315 7.25702737,27.2653122 7.25702737,20.1461033 C7.25702737,13.0272962 13.0658746,7.23537697 20.2063864,7.23537697 C27.3468982,7.23537697 33.1557454,13.0272962 33.1557454,20.1461033 C33.1557454,27.2653122 27.3468982,33.0572315 20.2063864,33.0572315 L20.2063864,33.0572315 Z M71.7429726,4.5128654 L71.7429726,4.69575966 C68.2333936,1.76703984 63.7175067,0 58.7936136,0 C49.7441005,0 42.064956,5.96235259 39.5,14.1536033 C36.935044,5.96235259 29.2558995,0 20.2063864,0 C9.06443036,0 0,9.03778977 0,20.1461033 C0,31.2552207 9.06443036,40.2926085 20.2063864,40.2926085 C25.1302795,40.2926085 29.6465695,38.5255686 33.1557454,35.5968488 L33.1557454,37.5439692 L40.4127728,47.2940416 L40.4127728,28.498542 C43.6026395,35.4489256 50.6391339,40.2926085 58.7936136,40.2926085 C63.7175067,40.2926085 68.2333936,38.5255686 71.7429726,35.5968488 L71.7429726,38.5669711 C71.7429726,54.6198608 56.9725029,64.3779725 56.8531651,64.4559538 L54.5861504,65.8865486 L58.4674505,72.0000402 L60.7562363,70.5553766 C61.5012912,70.0782437 79,58.6270537 79,38.5669711 L79,0.90281426 L71.7429726,4.5128654 Z" id="Fill-37" fill="#231F20" mask="url(#mask-2)"></path>
                </g>
                <path d="M59,12 C54.5816,12 51,15.5816 51,20 C51,24.418 54.5816,28 59,28 C63.418,28 67,24.418 67,20 C67,15.5816 63.418,12 59,12" id="Fill-40" fill="#231F20"></path>
                <path d="M21,12 C16.5816,12 13,15.5816 13,20 C13,24.418 16.5816,28 21,28 C25.4184,28 29,24.418 29,20 C29,15.5816 25.4184,12 21,12" id="Fill-42" fill="#231F20"></path>
            </g>
        </g>
    </g>
</svg>