<?xml version="1.0" encoding="UTF-8"?>
<svg width="44px" height="57px" viewBox="0 0 44 57" version="1.1" xmlns="http://www.w3.org/2000/svg" xmlns:xlink="http://www.w3.org/1999/xlink">
    <title>certificate-alt</title>
    <defs>
        <filter color-interpolation-filters="auto" id="filter-1">
            <feColorMatrix in="SourceGraphic" type="matrix" values="0 0 0 0 0.258512 0 0 0 0 0.522237 0 0 0 0 0.958251 0 0 0 1.000000 0"></feColorMatrix>
        </filter>
    </defs>
    <g id="V4-07-29-21" stroke="none" stroke-width="1" fill="none" fill-rule="evenodd">
        <g id="certificate-alt" transform="translate(-792.000000, -1849.000000)" filter="url(#filter-1)">
            <g transform="translate(792.000000, 1849.000000)">
                <path d="M43.533144,10.5984375 L31.6281618,0.35625 C31.3616323,0.178125 31.0951028,0 30.7397302,0 L1.42149042,0 C0.621902057,0 0,0.6234375 0,1.3359375 L0,55.6640625 C0,56.3765625 0.621902057,57 1.33264726,57 L22.1219446,57 C22.8326898,57 23.4545919,56.3765625 23.4545919,55.6640625 C23.4545919,54.9515625 22.921533,54.328125 22.2107877,54.328125 L2.66529453,54.328125 L2.66529453,2.671875 L30.2066713,2.671875 L41.3120652,12.2015625 L41.3120652,54.328125 L40.1571043,54.328125 C39.446359,54.328125 38.824457,54.9515625 38.824457,55.6640625 C38.824457,56.3765625 39.446359,57 40.1571043,57 L42.6447125,57 C43.3554577,57 43.9773597,56.3765625 43.9773597,55.6640625 L43.9773597,11.578125 C44.0662029,11.221875 43.8885166,10.865625 43.533144,10.5984375 Z" id="Path" fill="#000000" fill-rule="nonzero"></path>
                <path d="M10.3714286,13 L23.6285714,13 C24.36,13 25,12.3 25,11.5 C25,10.7 24.36,10 23.6285714,10 L10.3714286,10 C9.64,10 9,10.7 9,11.5 C9,12.3 9.64,13 10.3714286,13 Z" id="Path" fill="#000000" fill-rule="nonzero"></path>
                <path d="M10.3489209,21 L32.6510791,21 C33.3705036,21 34,20.3 34,19.5 C34,18.7 33.3705036,18 32.6510791,18 L10.3489209,18 C9.6294964,18 9,18.7 9,19.5 C9,20.3 9.6294964,21 10.3489209,21 Z" id="Path" fill="#000000" fill-rule="nonzero"></path>
                <path d="M10.3489209,30 L32.6510791,30 C33.3705036,30 34,29.3 34,28.5 C34,27.7 33.3705036,27 32.6510791,27 L10.3489209,27 C9.6294964,27 9,27.7 9,28.5 C9,29.3 9.6294964,30 10.3489209,30 Z" id="Path" fill="#000000" fill-rule="nonzero"></path>
                <path d="M31.0451128,35 C27.7067669,35 25,37.6586103 25,40.9375629 C25,42.3554884 25.5413534,43.6847936 26.443609,44.7482377 L26.443609,55.6485398 C26.443609,56.0916415 26.7142857,56.5347432 27.075188,56.8006042 C27.5263158,57.0664653 27.9774436,57.0664653 28.4285714,56.8006042 L31.0451128,55.3826788 L33.6616541,56.8006042 C33.8421053,56.8892246 34.112782,56.9778449 34.2932331,56.9778449 C34.5639098,56.9778449 34.7443609,56.8892246 35.0150376,56.8006042 C35.4661654,56.5347432 35.6466165,56.0916415 35.6466165,55.6485398 L35.6466165,44.6596173 C36.5488722,43.5961732 37,42.3554884 37,40.8489426 C37,37.6586103 34.3834586,35 31.0451128,35 Z M31.0451128,37.6586103 C32.8496241,37.6586103 34.3834586,39.0765358 34.3834586,40.9375629 C34.3834586,42.7099698 32.9398496,44.2165156 31.0451128,44.2165156 C29.1503759,44.2165156 27.7067669,42.7099698 27.7067669,40.9375629 C27.7067669,39.0765358 29.2406015,37.6586103 31.0451128,37.6586103 Z M31.6766917,52.5468278 C31.2255639,52.2809668 30.7744361,52.2809668 30.3233083,52.5468278 L29.1503759,53.2557905 L29.1503759,46.5206445 C29.7819549,46.6978852 30.4135338,46.8751259 31.0451128,46.8751259 C31.6766917,46.8751259 32.3984962,46.7865055 32.9398496,46.5206445 L32.9398496,53.2557905 L31.6766917,52.5468278 Z" id="Shape" fill="#000000" fill-rule="nonzero"></path>
            </g>
        </g>
    </g>
</svg>