<?xml version="1.0" encoding="UTF-8"?>
<svg width="227px" height="74px" viewBox="0 0 227 74" version="1.1" xmlns="http://www.w3.org/2000/svg" xmlns:xlink="http://www.w3.org/1999/xlink">
    <title>Group 44</title>
    <defs>
        <filter color-interpolation-filters="auto" id="filter-1">
            <feColorMatrix in="SourceGraphic" type="matrix" values="0 0 0 0 0.000000 0 0 0 0 0.000000 0 0 0 0 0.000000 0 0 0 1.000000 0"></feColorMatrix>
        </filter>
        <polygon id="path-2" points="0 0 79 0 79 72 0 72"></polygon>
    </defs>
    <g id="Symbols" stroke="none" stroke-width="1" fill="none" fill-rule="evenodd">
        <g id="Group-44" transform="translate(-135.000000, -55.000000)" filter="url(#filter-1)">
            <g transform="translate(135.000000, 55.000000)">
                <path d="M101.012334,6.01066496 C99.1925243,6.01066496 97.4697709,7.38096626 97.4697709,9.9510461 C97.4697709,12.5211259 99.1925243,13.989743 101.012334,13.989743 C102.880672,13.989743 104.578757,12.5700798 104.578757,10 C104.578757,7.42992016 102.880672,6.01066496 101.012334,6.01066496 M100.138826,3 C102.298333,3 103.778445,4.02803194 104.578757,5.15356373 L104.578757,3.22029256 L108,3.22029256 L108,16.7797074 L104.578757,16.7797074 L104.578757,14.7974824 C103.778445,15.972376 102.249805,17 100.114561,17 C96.7175828,17 94,14.1855586 94,9.9510461 C94,5.7165336 96.7175828,3 100.138826,3" id="Fill-1" fill="#000000"></path>
                <path d="M117.012334,6.08989772 C115.192524,6.08989772 113.469771,7.49626174 113.469771,10.1339793 C113.469771,12.7716969 115.192524,14.2789641 117.012334,14.2789641 C118.880672,14.2789641 120.578757,12.8219391 120.578757,10.1842215 C120.578757,7.54650398 118.880672,6.08989772 117.012334,6.08989772 M116.138826,3 C118.249805,3 119.778445,4.00484479 120.578757,5.21023985 L120.578757,3.22609008 L124,3.22609008 L124,17.2432562 C124,21.0110054 121.768104,24 117.352032,24 C113.566827,24 110.922037,22.0409713 110.582744,18.8510078 L113.955054,18.8510078 C114.294751,20.1070638 115.556486,20.9356421 117.254976,20.9356421 C119.123314,20.9356421 120.578757,19.8303128 120.578757,17.2432562 L120.578757,15.0828399 C119.778445,16.2882349 118.249805,17.3684431 116.138826,17.3684431 C112.717583,17.3684431 110,14.479933 110,10.1339793 C110,5.7880256 112.717583,3 116.138826,3" id="Fill-3" fill="#000000"></path>
                <path d="M130.161084,17 L127,17 L127,3.19970936 L130.161084,3.19970936 L130.161084,5.34170646 C130.951825,3.92173552 132.261197,3 134,3 L134,6.66203031 L133.164471,6.66203031 C131.290177,6.66203031 130.161084,7.45920698 130.161084,10.1243513 L130.161084,17 Z" id="Fill-5" fill="#000000"></path>
                <path d="M138.633504,8.72719855 L145.315678,8.72719855 C145.26486,6.94038114 143.791554,5.8144414 141.961675,5.8144414 C140.259687,5.8144414 138.913004,6.86695029 138.633504,8.72719855 M142.063735,17 C137.972867,17 135,14.2589895 135,10 C135,5.7165336 137.896639,3 142.063735,3 C146.12877,3 149,5.6675797 149,9.70627659 C149,10.1464538 148.974591,10.5874468 148.898364,11.0280319 L138.608095,11.0280319 C138.785958,13.0351419 140.208869,14.1606737 141.987507,14.1606737 C143.512054,14.1606737 144.350132,13.4267731 144.807496,12.5211259 L148.644272,12.5211259 C147.881999,15.017367 145.54436,17 142.063735,17" id="Fill-7" fill="#000000"></path>
                <path d="M152.633504,8.72719855 L159.315678,8.72719855 C159.26486,6.94038114 157.791554,5.8144414 155.961675,5.8144414 C154.259687,5.8144414 152.913004,6.86695029 152.633504,8.72719855 M156.063735,17 C151.972867,17 149,14.2589895 149,10 C149,5.7165336 151.896639,3 156.063735,3 C160.12877,3 163,5.6675797 163,9.70627659 C163,10.1464538 162.974591,10.5874468 162.898364,11.0280319 L152.608095,11.0280319 C152.785958,13.0351419 154.208869,14.1606737 155.987507,14.1606737 C157.512054,14.1606737 158.350132,13.4267731 158.807496,12.5211259 L162.644272,12.5211259 C161.881999,15.017367 159.54436,17 156.063735,17" id="Fill-9" fill="#000000"></path>
                <path d="M183.633757,9.37718726 C183.633757,7.18530162 182.455973,6.03932618 180.676272,6.03932618 C178.873329,6.03932618 177.695144,7.18530162 177.695144,9.37718726 L177.695144,17 L174.328901,17 L174.328901,9.37718726 C174.328901,7.18530162 173.151117,6.03932618 171.371416,6.03932618 C169.544428,6.03932618 168.365842,7.18530162 168.365842,9.37718726 L168.365842,17 L165,17 L165,3.19930008 L168.365842,3.19930008 L168.365842,4.86843822 C169.207804,3.72246278 170.626434,3 172.285511,3 C174.352945,3 176.060111,3.92134765 176.973806,5.64031081 C177.839411,4.07123791 179.594666,3 181.541878,3 C184.739808,3 187,5.09265081 187,8.90384958 L187,17 L183.633757,17 L183.633757,9.37718726 Z" id="Fill-11" fill="#000000"></path>
                <path d="M192.633504,8.72719855 L199.315678,8.72719855 C199.26486,6.94038114 197.791554,5.8144414 195.961675,5.8144414 C194.259687,5.8144414 192.913004,6.86695029 192.633504,8.72719855 M196.063735,17 C191.972867,17 189,14.2589895 189,10 C189,5.7165336 191.896639,3 196.063735,3 C200.12877,3 203,5.6675797 203,9.70627659 C203,10.1464538 202.974591,10.5874468 202.898364,11.0280319 L192.608095,11.0280319 C192.785958,13.0351419 194.208869,14.1606737 195.987507,14.1606737 C197.512054,14.1606737 198.350132,13.4267731 198.807496,12.5211259 L202.644272,12.5211259 C201.881999,15.017367 199.54436,17 196.063735,17" id="Fill-13" fill="#000000"></path>
                <path d="M214.553223,9.37718726 C214.553223,7.1599739 213.346707,5.96417344 211.524623,5.96417344 C209.653703,5.96417344 208.446777,7.1599739 208.446777,9.37718726 L208.446777,17 L205,17 L205,3.19930008 L208.446777,3.19930008 L208.446777,4.91826324 C209.333197,3.74696008 210.810563,3 212.558779,3 C215.735116,3 218,5.09265081 218,8.90384958 L218,17 L214.553223,17 L214.553223,9.37718726 Z" id="Fill-15" fill="#000000"></path>
                <path d="M220.595246,6.19959959 L219,6.19959959 L219,3.37064017 L220.595246,3.37064017 L220.595246,0 L224.00287,0 L224.00287,3.37064017 L227,3.37064017 L227,6.19959959 L224.00287,6.19959959 L224.00287,12.7928506 C224.00287,13.7031695 224.365426,14.0968209 225.428924,14.0968209 L227,14.0968209 L227,17 L224.873005,17 C222.311345,17 220.595246,15.8928554 220.595246,12.7686574 L220.595246,6.19959959 Z" id="Fill-17" fill="#000000"></path>
                <path d="M101.012334,30.0898361 C99.1925243,30.0898361 97.4697709,31.4961721 97.4697709,34.1342558 C97.4697709,36.7715021 99.1925243,38.2787392 101.012334,38.2787392 C102.880672,38.2787392 104.578757,36.822162 104.578757,34.184497 C104.578757,31.5464133 102.880672,30.0898361 101.012334,30.0898361 M100.138826,27 C102.249805,27 103.778445,28.0048248 104.578757,29.2101958 L104.578757,27.2260856 L108,27.2260856 L108,41.2429722 C108,45.0106464 105.768104,48 101.352032,48 C97.5668275,48 94.922037,46.0405917 94.5827436,42.8506918 L97.9550536,42.8506918 C98.2947514,44.1067228 99.5564863,44.9352845 101.254976,44.9352845 C103.123314,44.9352845 104.578757,43.8303959 104.578757,41.2429722 L104.578757,39.082599 C103.778445,40.2883887 102.249805,41.3685753 100.138826,41.3685753 C96.7175828,41.3685753 94,38.4801228 94,34.1342558 C94,29.78797 96.7175828,27 100.138826,27" id="Fill-19" fill="#000000"></path>
                <path d="M113.161084,41 L110,41 L110,27.1992942 L113.161084,27.1992942 L113.161084,29.3412913 C113.951825,27.9213203 115.261197,27 117,27 L117,30.6616151 L116.164471,30.6616151 C114.290177,30.6616151 113.161084,31.4587918 113.161084,34.1243513 L113.161084,41 Z" id="Fill-21" fill="#000000"></path>
                <path d="M127.012334,30.0105772 C125.192524,30.0105772 123.469771,31.3808386 123.469771,33.9512515 C123.469771,36.5208485 125.192524,37.9894228 127.012334,37.9894228 C128.880672,37.9894228 130.578757,36.5702089 130.578757,34.000204 C130.578757,31.4297911 128.880672,30.0105772 127.012334,30.0105772 M126.138826,27 C128.298333,27 129.778445,28.028002 130.578757,29.153501 L130.578757,27.2202861 L134,27.2202861 L134,40.7797139 L130.578757,40.7797139 L130.578757,38.7975465 C129.778445,39.971998 128.249805,41 126.114561,41 C122.717583,41 120,38.1856406 120,33.9512515 C120,29.7164544 122.717583,27 126.138826,27" id="Fill-23" fill="#000000"></path>
                <path d="M142.012334,30.2097732 C140.192524,30.2097732 138.469771,31.555197 138.469771,34.0790182 C138.469771,36.6020383 140.192524,38.043993 142.012334,38.043993 C143.880672,38.043993 145.578757,36.650504 145.578757,34.1270834 C145.578757,31.6032622 143.880672,30.2097732 142.012334,30.2097732 M141.16309,27.2537662 C142.934371,27.2537662 144.632456,28.0708739 145.554898,29.3201673 L145.554898,23 L149,23 L149,40.7837068 L145.554898,40.7837068 L145.554898,38.8130354 C144.753777,40.0386969 143.249805,41 141.138826,41 C137.717583,41 135,38.2366541 135,34.0790182 C135,29.9209818 137.717583,27.2537662 141.16309,27.2537662" id="Fill-25" fill="#000000"></path>
                <path d="M155.633504,32.7274396 L162.315678,32.7274396 C162.26486,30.9406743 160.791554,29.8147673 158.961675,29.8147673 C157.259687,29.8147673 155.913004,30.8672455 155.633504,32.7274396 M159.063735,41 C154.972867,41 152,38.2590693 152,34.000204 C152,29.7168624 154.896639,27 159.063735,27 C163.12877,27 166,29.6679099 166,33.7064891 C166,34.1466535 165.974591,34.5876337 165.898364,35.028206 L155.608095,35.028206 C155.785958,37.0352574 157.208869,38.1607564 158.987507,38.1607564 C160.512054,38.1607564 161.350132,37.4268772 161.807496,36.5212564 L165.644272,36.5212564 C164.881999,39.0174248 162.54436,41 159.063735,41" id="Fill-27" fill="#000000"></path>
                <g id="Group-39" transform="translate(0.000000, 2.000000)">
                    <mask id="mask-3" fill="white">
                        <use xlink:href="#path-2"></use>
                    </mask>
                    <g id="Clip-38"></g>
                    <path d="M58.7936136,33.0572315 C51.6531018,33.0572315 45.8442546,27.2653122 45.8442546,20.1461033 C45.8442546,13.0272962 51.6531018,7.23537697 58.7936136,7.23537697 C65.9341254,7.23537697 71.7429726,13.0272962 71.7429726,20.1461033 C71.7429726,27.2653122 65.9341254,33.0572315 58.7936136,33.0572315 L58.7936136,33.0572315 Z M20.2063864,33.0572315 C13.0658746,33.0572315 7.25702737,27.2653122 7.25702737,20.1461033 C7.25702737,13.0272962 13.0658746,7.23537697 20.2063864,7.23537697 C27.3468982,7.23537697 33.1557454,13.0272962 33.1557454,20.1461033 C33.1557454,27.2653122 27.3468982,33.0572315 20.2063864,33.0572315 L20.2063864,33.0572315 Z M71.7429726,4.5128654 L71.7429726,4.69575966 C68.2333936,1.76703984 63.7175067,0 58.7936136,0 C49.7441005,0 42.064956,5.96235259 39.5,14.1536033 C36.935044,5.96235259 29.2558995,0 20.2063864,0 C9.06443036,0 0,9.03778977 0,20.1461033 C0,31.2552207 9.06443036,40.2926085 20.2063864,40.2926085 C25.1302795,40.2926085 29.6465695,38.5255686 33.1557454,35.5968488 L33.1557454,37.5439692 L40.4127728,47.2940416 L40.4127728,28.498542 C43.6026395,35.4489256 50.6391339,40.2926085 58.7936136,40.2926085 C63.7175067,40.2926085 68.2333936,38.5255686 71.7429726,35.5968488 L71.7429726,38.5669711 C71.7429726,54.6198608 56.9725029,64.3779725 56.8531651,64.4559538 L54.5861504,65.8865486 L58.4674505,72.0000402 L60.7562363,70.5553766 C61.5012912,70.0782437 79,58.6270537 79,38.5669711 L79,0.90281426 L71.7429726,4.5128654 Z" id="Fill-37" fill="#231F20" mask="url(#mask-3)"></path>
                </g>
                <path d="M59,14 C54.5816,14 51,17.5816 51,22 C51,26.418 54.5816,30 59,30 C63.418,30 67,26.418 67,22 C67,17.5816 63.418,14 59,14" id="Fill-40" fill="#231F20"></path>
                <path d="M21,14 C16.5816,14 13,17.5816 13,22 C13,26.418 16.5816,30 21,30 C25.4184,30 29,26.418 29,22 C29,17.5816 25.4184,14 21,14" id="Fill-42" fill="#231F20"></path>
            </g>
        </g>
    </g>
</svg>