<?xml version="1.0" encoding="UTF-8"?>
<svg width="55px" height="55px" viewBox="0 0 55 55" version="1.1" xmlns="http://www.w3.org/2000/svg" xmlns:xlink="http://www.w3.org/1999/xlink">
    <title>keyword-research</title>
    <defs>
        <filter color-interpolation-filters="auto" id="filter-1">
            <feColorMatrix in="SourceGraphic" type="matrix" values="0 0 0 0 0.258512 0 0 0 0 0.522237 0 0 0 0 0.958251 0 0 0 1.000000 0"></feColorMatrix>
        </filter>
    </defs>
    <g id="V4-07-29-21" stroke="none" stroke-width="1" fill="none" fill-rule="evenodd">
        <g id="keyword-research" transform="translate(-170.000000, -1848.000000)" filter="url(#filter-1)">
            <g transform="translate(170.000000, 1848.000000)">
                <path d="M54.4202621,46.1518938 L39.4759081,31.2905115 C38.7029243,30.517376 37.4146179,30.517376 36.641634,31.2905115 L34.9238922,33.0085904 L29.169457,27.2530262 C34.752118,20.7243264 34.4085696,10.9312768 28.3105861,4.83209684 C21.8690542,-1.61069895 11.3908289,-1.61069895 4.86340992,4.83209684 C-1.66400909,11.2748926 -1.578122,21.7551738 4.86340992,28.2838735 C8.12711942,31.5482234 12.3355869,33.0944943 16.5440545,33.0944943 C20.4089736,33.0944943 24.1880057,31.7200312 27.279941,29.1429129 L33.0343762,34.8984772 L31.3166343,36.616556 C30.5436505,37.3896915 30.5436505,38.6782507 31.3166343,39.4513862 L46.2609884,54.3986724 C46.6904238,54.8281921 47.2057464,55 47.7210689,55 C48.2363915,55 48.751714,54.8281921 49.1811495,54.3986724 L54.4202621,49.1585318 C55.193246,48.2994924 55.193246,47.0109332 54.4202621,46.1518938 Z M6.75292595,26.3939867 C1.34203914,20.9820383 1.34203914,12.0480281 6.75292595,6.63607966 C9.41542581,3.88715346 13.0226837,2.51269036 16.6299416,2.51269036 C20.2371994,2.51269036 23.7585702,3.88715346 26.5069572,6.63607966 C31.917844,12.0480281 31.917844,20.9820383 26.5069572,26.3939867 C21.0101833,31.8059352 12.1638128,31.8059352 6.75292595,26.3939867 Z M47.7210689,52.0792659 L33.5496987,37.9910191 L38.0158275,33.5240141 L52.1871977,47.6981648 L47.7210689,52.0792659 Z" id="Shape" fill="#000000" fill-rule="nonzero"></path>
                <path d="M10.3392857,12 L17.6607143,12 C18.375,12 19,11.3 19,10.5 C19,9.7 18.375,9 17.6607143,9 L10.3392857,9 C9.625,9 9,9.7 9,10.5 C9,11.4 9.625,12 10.3392857,12 Z" id="Path" fill="#000000" fill-rule="nonzero"></path>
                <path d="M19.7839552,19 L10.2940746,19 C9.60390149,19 9,19.7 9,20.5 C9,21.3 9.60390149,22 10.2940746,22 L19.6976836,22 C20.3878567,22 20.9917582,21.3 20.9917582,20.5 C21.0780298,19.6 20.4741283,19 19.7839552,19 Z" id="Path" fill="#000000" fill-rule="nonzero"></path>
            </g>
        </g>
    </g>
</svg>